<svg width="48" height="48" viewBox="0 0 48 48" fill="none" xmlns="http://www.w3.org/2000/svg">
<circle cx="24" cy="24" r="16.8" fill="#1A1A1A" fill-opacity="0.85"/>
<path d="M46.2635 24C47.2225 24 48.0065 23.2214 47.9372 22.2649C47.6116 17.7715 46.0271 13.459 43.3658 9.82378C42.7994 9.04993 41.6978 8.9642 40.9669 9.58515C40.236 10.2061 40.1536 11.2981 40.7106 12.0789C42.8494 15.0767 44.1425 18.5961 44.4536 22.2655C44.5346 23.2211 45.3045 24 46.2635 24Z" fill="#1A1A1A" fill-opacity="0.85"/>
<path d="M38.641 7.22784C39.2717 6.50535 39.2007 5.40272 38.4345 4.8259C34.8353 2.1162 30.5445 0.473987 26.0558 0.0881787C25.1003 0.00605048 24.3113 0.779544 24.2984 1.7385C24.2856 2.69746 25.0541 3.47765 26.0085 3.57147C29.6734 3.93173 33.1751 5.27193 36.1441 7.45065C36.9172 8.01805 38.0103 7.95033 38.641 7.22784Z" fill="#1A1A1A" fill-opacity="0.85"/>
<path d="M21.8187 1.84362C21.7247 0.889188 20.8731 0.185242 19.928 0.34794C15.488 1.11224 11.3516 3.11169 7.99459 6.11626C7.27996 6.75585 7.30258 7.86053 7.99215 8.52706C8.68171 9.19358 9.77656 9.16856 10.499 8.53776C13.2729 6.11559 16.6486 4.48386 20.2699 3.81473C21.2129 3.64048 21.9127 2.79805 21.8187 1.84362Z" fill="#1A1A1A" fill-opacity="0.85"/>
<path d="M5.57475 11.5031C4.78104 10.9647 3.69518 11.169 3.21562 11.9995C0.962838 15.9011 -0.146427 20.3595 0.0154474 24.8618C0.0499061 25.8202 0.913449 26.5095 1.86688 26.4059C2.8203 26.3022 3.50144 25.4447 3.47872 24.4859C3.39147 20.8044 4.29673 17.1659 6.09899 13.9545C6.56834 13.1181 6.36845 12.0414 5.57475 11.5031Z" fill="#1A1A1A" fill-opacity="0.85"/>
<path d="M2.78849 30.7628C1.87476 31.0541 1.3643 32.034 1.7209 32.9243C3.39606 37.1065 6.21568 40.7338 9.85539 43.389C10.6302 43.9542 11.7058 43.7012 12.2135 42.8876C12.7212 42.074 12.468 41.0085 11.7001 40.4339C8.75183 38.2273 6.45076 35.2671 5.03973 31.8656C4.67226 30.9797 3.70221 30.4715 2.78849 30.7628Z" fill="#1A1A1A" fill-opacity="0.85"/>
<path d="M16.5889 44.9938C16.2697 45.8981 16.7428 46.8966 17.6679 47.1496C22.0135 48.3384 26.6074 48.2797 30.9212 46.9804C31.8395 46.7038 32.287 45.6936 31.9448 44.7977C31.6026 43.9018 30.6002 43.4606 29.6786 43.7259C26.1398 44.7448 22.3907 44.7926 18.827 43.8645C17.8989 43.6228 16.9082 44.0894 16.5889 44.9938Z" fill="#1A1A1A" fill-opacity="0.85"/>
<path d="M36.3341 42.5347C36.8654 43.3331 37.9479 43.5545 38.7058 42.9668C42.2663 40.2064 44.9786 36.4981 46.5307 32.2687C46.8611 31.3683 46.3222 30.4038 45.4003 30.1393C44.4784 29.8748 43.5237 30.4113 43.1823 31.3075C41.8714 34.7488 39.6579 37.7751 36.7754 40.067C36.0247 40.6639 35.8028 41.7363 36.3341 42.5347Z" fill="#1A1A1A" fill-opacity="0.85"/>
<rect width="14.4" height="12.9" transform="translate(16.8 17.4)" fill="#1A1A1A" fill-opacity="0.85"/>
<rect x="16.8" y="17.4" width="14.4" height="4.8" rx="1.2" fill="white"/>
<rect x="16.8" y="25.5" width="14.4" height="4.8" rx="1.2" fill="white"/>
</svg>
